<?xml version="1.0" encoding="utf-8"?>
<!-- Generator: Adobe Illustrator 23.0.1, SVG Export Plug-In . SVG Version: 6.00 Build 0)  -->
<svg version="1.1" id="Layer_1" xmlns="http://www.w3.org/2000/svg" xmlns:xlink="http://www.w3.org/1999/xlink" x="0px" y="0px"
	 viewBox="0 0 512 512" style="enable-background:new 0 0 512 512;" xml:space="preserve">
<title>ionicons-v5-d</title>
<g>
	<path d="M376.3,92.7h68.8v36.5c0,4.5-0.9,8.7-2.6,12.6c-2.5,5.8-6.6,10.7-11.7,14.2c-2.6,1.7-5.4,3.1-8.4,4.1s-6.2,1.4-9.6,1.4
		h-36.5c-9.5,0-17.2,7.7-17.2,17.2c0,9.5,7.7,17.2,17.2,17.2h36.5c9.1,0,17.9-1.8,25.9-5.3c11.9-5.1,22.1-13.5,29.3-24.1
		c3.5-5.3,6.4-11.2,8.4-17.4c1.9-6.2,3-12.9,3-19.8V92.7c0-4.7-1-9.2-2.7-13.4c-2.6-6.2-7-11.4-12.5-15.2c-2.8-1.8-5.8-3.3-9-4.3
		c-3.2-1-6.7-1.5-10.2-1.5h-68.8c-9.5,0-17.2,7.7-17.2,17.2S366.9,92.7,376.3,92.7z"/>
	<path d="M84.1,75.5v17.2h275.1v189.1c0,9.6-1.9,18.6-5.4,26.8c-5.2,12.4-14,22.9-24.9,30.3c-5.5,3.8-11.5,6.7-17.9,8.6
		c-6.4,2-13.3,3.1-20.4,3.1H170c-9.6,0-18.6-1.9-26.8-5.4c-12.4-5.2-22.9-14-30.3-24.9c-3.8-5.5-6.7-11.5-8.6-17.9
		c-2-6.4-3.1-13.3-3.1-20.4V75.5H84.1v17.2V75.5H66.9v206.3c0,14.2,2.9,27.8,8.2,40.2c7.8,18.5,21,34.3,37.4,45.3
		c8.3,5.6,17.3,10,27,13c9.7,3,20,4.6,30.6,4.6h120.3c14.2,0,27.8-2.9,40.2-8.2c18.5-7.8,34.3-21,45.3-37.4c5.6-8.3,10-17.3,13-27
		s4.6-20,4.6-30.6V75.5c0-4.5-1.8-8.9-5.1-12.1c-3.2-3.2-7.6-5.1-12.1-5.1H84.1c-4.5,0-8.9,1.8-12.1,5.1s-5.1,7.6-5.1,12.1H84.1z"/>
	<path d="M49.7,453.7h361c9.5,0,17.2-7.7,17.2-17.2s-7.7-17.2-17.2-17.2h-361c-9.5,0-17.2,7.7-17.2,17.2S40.2,453.7,49.7,453.7"/>
</g>
</svg>
