<?xml version="1.0" encoding="utf-8"?>
<!-- Generator: Adobe Illustrator 23.0.1, SVG Export Plug-In . SVG Version: 6.00 Build 0)  -->
<svg version="1.1" id="Layer_1" xmlns="http://www.w3.org/2000/svg" xmlns:xlink="http://www.w3.org/1999/xlink" x="0px" y="0px"
	 viewBox="0 0 512 512" style="enable-background:new 0 0 512 512;" xml:space="preserve">
<title>ionicons-v5-e</title>
<g>
	<path d="M248,64V48c-27.6,0-53.9,5.6-77.9,15.7c-35.9,15.2-66.4,40.5-88,72.4C60.6,168.1,48,206.6,48,248
		c0,27.6,5.6,53.9,15.7,77.9c15.2,35.9,40.5,66.4,72.4,88C168.1,435.4,206.6,448,248,448c27.6,0,53.9-5.6,77.9-15.7
		c35.9-15.2,66.4-40.5,88-72.4C435.4,327.9,448,289.4,448,248c0-27.6-5.6-53.9-15.7-77.9c-15.2-35.9-40.5-66.4-72.4-88
		C327.9,60.6,289.4,48,248,48V64v16c23.2,0,45.3,4.7,65.4,13.2c30.1,12.7,55.8,34.1,73.9,60.9c9.1,13.4,16.2,28.2,21.1,44
		c4.9,15.8,7.6,32.5,7.6,50c0,23.2-4.7,45.3-13.2,65.4c-12.7,30.1-34.1,55.8-60.9,73.9c-13.4,9.1-28.2,16.2-44,21.1
		c-15.8,4.9-32.5,7.6-50,7.6c-23.2,0-45.3-4.7-65.4-13.2c-30.1-12.7-55.8-34.1-73.9-60.9c-9.1-13.4-16.2-28.2-21.1-44
		c-4.9-15.8-7.6-32.5-7.6-50c0-23.2,4.7-45.3,13.2-65.4c12.7-30.1,34.1-55.8,60.9-73.9c13.4-9.1,28.2-16.2,44-21.1
		c15.8-4.9,32.5-7.6,50-7.6V64z"/>
	<path d="M220,236h16v100c0,8.8,7.2,16,16,16c8.8,0,16-7.2,16-16l0-116c0-4.2-1.7-8.3-4.7-11.3c-3-3-7.1-4.7-11.3-4.7h-32
		c-8.8,0-16,7.2-16,16C204,228.8,211.2,236,220,236z"/>
	<path d="M208,356h88c8.8,0,16-7.2,16-16s-7.2-16-16-16h-88c-8.8,0-16,7.2-16,16S199.2,356,208,356"/>
	<circle cx="248" cy="156" r="26"/>
</g>
</svg>
