<?xml version="1.0" encoding="utf-8"?>
<!-- Generator: Adobe Illustrator 23.0.1, SVG Export Plug-In . SVG Version: 6.00 Build 0)  -->
<svg version="1.1" id="Layer_1" xmlns="http://www.w3.org/2000/svg" xmlns:xlink="http://www.w3.org/1999/xlink" x="0px" y="0px"
	 viewBox="0 0 495.5 447.4" style="enable-background:new 0 0 495.5 447.4;" xml:space="preserve">
<style type="text/css">
	.st0{fill:#9CDAF1;}
	.st1{fill:#7DBBE6;}
	.st2{fill:#24292E;}
	.st3{fill:#F4CBB2;}
	.st4{fill:#FFFFFF;}
	.st5{fill:#AD5C51;}
	.st6{fill:#C3E4D8;}
</style>
<g>
	<path class="st0" d="M356.1,366.5c0,20.5-47.6,37.2-106.2,37.2c-58.7,0-106.2-16.6-106.2-37.2c0-20.5,47.6-37.2,106.2-37.2
		S356.1,346,356.1,366.5z"/>
	<path class="st1" d="M221,402.3v-26.5c0-3.4-0.6-6.3-1.7-8.7c6.9,5.3,7.3,18.7,7.3,18.7v17c6.2,0.5,12.5,0.8,19.1,0.9l-0.2-16.9
		c-0.9-23.1-20.8-26-20.8-26c-7.2-1.6-7.1,2-6.4,4.3c-7.1-12.1-26.2-10.6-26.2-10.6c-6.6,2.4-0.5,6.6-0.5,6.6
		c10.4,3.8,11.3,15.1,11.3,15.1v23.6C208.8,400.9,214.8,401.7,221,402.3L221,402.3z"/>
	<path class="st1" d="M304.5,354.6c0,0-19.1-1.6-26.2,10.6c0.7-2.3,0.8-6-6.4-4.3c0,0-19.8,2.8-20.8,26l-0.2,16.9
		c6.5,0,12.9-0.3,19.1-0.7v-17.2c0,0,0.5-13.4,7.3-18.7c-1,2.4-1.7,5.3-1.7,8.7v26.8c6.2-0.5,12.2-1.3,17.9-2.2v-24.1
		c0,0,0.9-11.3,11.3-15.1C305,361.2,311.2,356.9,304.5,354.6L304.5,354.6z"/>
	<path class="st2" d="M437.3,212.4l0.3-1.4c-31.2-6.2-63.1-6.3-82.5-5.5c3.2-11.5,4.1-24.6,4.1-39.3c0-21.1-7.9-37.9-20.8-50.8
		c2.2-7.3,5.2-23.4-3-44c0,0-14.5-4.6-47.4,17.4c-12.9-3.2-26.6-4.8-40.3-4.8c-15.1,0-30.4,1.9-44.6,5.8
		c-33.9-23.2-48.9-18.4-48.9-18.4c-9.8,24.5-3.7,42.6-1.9,47.1c-11.5,12.4-18.5,28.2-18.5,47.7c0,14.7,1.7,27.8,5.7,39.2
		c-19.5-0.7-50.3-0.4-80.4,5.6l0.3,1.4c30.2-6,61.2-6.3,80.6-5.5c0.9,2.4,1.9,4.7,3,6.9c-19.2,0.6-51.9,3.1-83.3,11.9l0.4,1.4
		c31.6-8.9,64.7-11.3,83.6-11.9c11.5,21.4,34,35.2,74.2,39.5c-5.7,3.8-11.5,10.3-13.9,21.4c-7.8,3.7-32.4,12.8-47.1-12.6
		c0,0-8.3-15.1-24.1-16.3c0,0-15.3-0.2-1.1,9.6c0,0,10.3,4.8,17.4,23c0,0,9.2,31,53.8,21.1v32c0,0-0.9,11.3-11.3,15.1
		c0,0-6.1,4.2,0.5,6.6c0,0,28.8,2.4,28.8-21.2v-34.9c0,0-1.1-13.9,5.7-18.7v57.4c0,0-0.5,13.7-7.6,18.9c0,0-4.7,8.5,5.7,6.1
		c0,0,19.8-2.8,20.8-26l0.4-58.1h4.8l0.5,58.1c0.9,23.1,20.8,26,20.8,26c10.4,2.4,5.7-6.1,5.7-6.1c-7.1-5.2-7.6-18.9-7.6-18.9v-56.9
		c6.8,5.3,5.7,18.2,5.7,18.2v34.9c0,23.6,28.8,21.2,28.8,21.2c6.6-2.4,0.5-6.6,0.5-6.6c-10.4-3.8-11.3-15.1-11.3-15.1v-45.8
		c0-17.9-7.5-27.3-14.9-32.3c42.9-4.3,63.4-18.1,72.9-39.6c18.8,0.5,52.6,2.8,84.9,11.9l0.4-1.4c-32.1-9.1-65.7-11.4-84.7-12
		c0.9-2.2,1.7-4.4,2.4-6.8C374,206.2,406.1,206.2,437.3,212.4L437.3,212.4z"/>
	<path class="st3" d="M317.3,165.2c9.2,8.4,14.6,18.5,14.6,29.3c0,50.8-37.9,52.2-84.6,52.2s-84.6-7-84.6-52.2
		c0-10.8,5.3-20.8,14.4-29.2c15.2-13.9,40.9-6.5,70.1-6.5C276.5,158.9,302.1,151.4,317.3,165.2L317.3,165.2z"/>
	<path class="st4" d="M219.2,197.1c0,14-7.9,25.3-17.6,25.3c-9.7,0-17.6-11.3-17.6-25.3s7.9-25.3,17.6-25.3
		C211.4,171.8,219.2,183.2,219.2,197.1z M313.7,197.1c0,14-7.9,25.3-17.6,25.3s-17.6-11.3-17.6-25.3s7.9-25.3,17.6-25.3
		S313.7,183.2,313.7,197.1z"/>
	<path class="st5" d="M213.6,197.5c0,9.3-5.3,16.9-11.7,16.9s-11.7-7.6-11.7-16.9c0-9.3,5.3-16.9,11.7-16.9
		C208.3,180.6,213.6,188.1,213.6,197.5L213.6,197.5z M308,197.5c0,9.3-5.3,16.9-11.7,16.9c-6.5,0-11.7-7.6-11.7-16.9
		c0-9.3,5.3-16.9,11.7-16.9C302.8,180.6,308,188.1,308,197.5L308,197.5z"/>
	<path class="st5" d="M247.6,215.2c2.4,0,4.4,2,4.4,4.4s-2,4.4-4.4,4.4s-4.4-2-4.4-4.4S245.2,215.2,247.6,215.2z"/>
	<path class="st5" d="M257.9,236.1c0.3,0.7-0.1,1.5-0.9,1.8c-0.7,0.3-1.5-0.1-1.8-0.9c-1.1-3.2-4.2-5.3-7.6-5.3s-6.4,2.1-7.6,5.3
		c-0.3,0.7-1.1,1.1-1.8,0.9c-0.7-0.3-1.1-1.1-0.9-1.8c1.5-4.3,5.6-7.2,10.2-7.2S256.4,231.8,257.9,236.1L257.9,236.1z"/>
	<path class="st6" d="M139.8,250.9c0,1.2-1.4,2.1-3.1,2.1c-1.7,0-3.1-0.9-3.1-2.1c0-1.2,1.4-2.1,3.1-2.1S139.8,249.7,139.8,250.9
		L139.8,250.9z M148.3,255.6c0,1.2-1.4,2.1-3.1,2.1c-1.7,0-3.1-0.9-3.1-2.1s1.4-2.1,3.1-2.1S148.3,254.5,148.3,255.6L148.3,255.6z
		 M153.5,261.8c0,1.2-1.4,2.1-3.1,2.1c-1.7,0-3.1-0.9-3.1-2.1s1.4-2.1,3.1-2.1C152.1,259.6,153.5,260.6,153.5,261.8L153.5,261.8z
		 M158.2,268.8c0,1.2-1.4,2.1-3.1,2.1c-1.7,0-3.1-0.9-3.1-2.1s1.4-2.1,3.1-2.1C156.8,266.7,158.2,267.7,158.2,268.8L158.2,268.8z
		 M163.4,275.5c0,1.2-1.4,2.1-3.1,2.1c-1.7,0-3.1-0.9-3.1-2.1s1.4-2.1,3.1-2.1C162,273.3,163.4,274.3,163.4,275.5L163.4,275.5z
		 M170.5,281.1c0,1.2-1.4,2.1-3.1,2.1c-1.7,0-3.1-0.9-3.1-2.1s1.4-2.1,3.1-2.1S170.5,279.9,170.5,281.1L170.5,281.1z M180.4,284.9
		c0,1.2-1.4,2.1-3.1,2.1s-3.1-0.9-3.1-2.1s1.4-2.1,3.1-2.1S180.4,283.7,180.4,284.9L180.4,284.9z M190.3,284.9
		c0,1.2-1.4,2.1-3.1,2.1s-3.1-0.9-3.1-2.1s1.4-2.1,3.1-2.1S190.3,283.7,190.3,284.9L190.3,284.9z M200.3,283.3
		c0,1.2-1.4,2.1-3.1,2.1s-3.1-0.9-3.1-2.1s1.4-2.1,3.1-2.1S200.3,282.1,200.3,283.3L200.3,283.3z"/>
	<path class="st0" d="M128.5,257.2l-3.1,10.7c0,0-0.8,3.9,2.8,4.5c3.8-0.1,3.5-3.6,3.2-4.8L128.5,257.2z"/>
</g>
</svg>
