<?xml version="1.0" encoding="utf-8"?>
<!-- Generator: Adobe Illustrator 23.0.1, SVG Export Plug-In . SVG Version: 6.00 Build 0)  -->
<svg version="1.1" id="Layer_1" xmlns="http://www.w3.org/2000/svg" xmlns:xlink="http://www.w3.org/1999/xlink" x="0px" y="0px"
	 viewBox="0 0 495.5 447.4" style="enable-background:new 0 0 495.5 447.4;" xml:space="preserve">
<style type="text/css">
	.st0{fill:#9CDAF1;}
	.st1{fill:#7DBBE6;}
	.st2{fill:#24292E;}
	.st3{fill:#F4CBB2;}
	.st4{fill:#FFFFFF;}
	.st5{fill:#AD5C51;}
	.st6{fill:#C3E4D8;}
	.st7{fill:#150000;}
	.st8{fill:#2F363D;}
</style>
<g>
	<path class="st0" d="M373.5,370.1c0,20.5-47.6,37.2-106.2,37.2c-58.7,0-106.2-16.6-106.2-37.2c0-20.5,47.6-37.2,106.2-37.2
		S373.5,349.6,373.5,370.1z"/>
	<path class="st1" d="M238.4,405.9v-26.5c0-3.4-0.6-6.3-1.7-8.7c6.9,5.3,7.3,18.7,7.3,18.7v17c6.2,0.5,12.5,0.8,19.1,0.9l-0.2-16.9
		c-0.9-23.1-20.8-26-20.8-26c-7.2-1.6-7.1,2-6.4,4.3c-7.1-12.1-26.2-10.6-26.2-10.6c-6.6,2.4-0.5,6.6-0.5,6.6
		c10.4,3.8,11.3,15.1,11.3,15.1v23.6C226.2,404.5,232.2,405.3,238.4,405.9L238.4,405.9z"/>
	<path class="st1" d="M321.9,358.2c0,0-19.1-1.6-26.2,10.6c0.7-2.3,0.8-6-6.4-4.3c0,0-19.8,2.8-20.8,26l-0.2,16.9
		c6.5,0,12.9-0.3,19.1-0.7v-17.2c0,0,0.5-13.4,7.3-18.7c-1,2.4-1.7,5.3-1.7,8.7v26.8c6.2-0.5,12.2-1.3,17.9-2.2V380
		c0,0,0.9-11.3,11.3-15.1C322.4,364.8,328.6,360.5,321.9,358.2L321.9,358.2z"/>
	<path class="st2" d="M454.7,216l0.3-1.4c-31.2-6.2-63.1-6.3-82.5-5.5c3.2-11.5,4.1-24.6,4.1-39.3c0-21.1-7.9-37.9-20.8-50.8
		c2.2-7.3,5.2-23.4-3-44c0,0-14.5-4.6-47.4,17.4c-12.9-3.2-26.6-4.8-40.3-4.8c-15.1,0-30.4,1.9-44.6,5.8
		C186.6,70.2,171.6,75,171.6,75c-9.8,24.5-3.7,42.6-1.9,47.1c-11.5,12.4-18.5,28.2-18.5,47.7c0,14.7,1.7,27.8,5.7,39.2
		c-19.5-0.7-50.3-0.4-80.4,5.6l0.3,1.4c30.2-6,61.2-6.3,80.6-5.5c0.9,2.4,1.9,4.7,3,6.9c-19.2,0.6-51.9,3.1-83.3,11.9l0.4,1.4
		c31.6-8.9,64.7-11.3,83.6-11.9c11.5,21.4,34,35.2,74.2,39.5c-5.7,3.8-11.5,10.3-13.9,21.4c-7.8,3.7-32.4,12.8-47.1-12.6
		c0,0-8.3-15.1-24.1-16.3c0,0-15.3-0.2-1.1,9.6c0,0,10.3,4.8,17.4,23c0,0,9.2,31,53.8,21.1v32c0,0-0.9,11.3-11.3,15.1
		c0,0-6.1,4.2,0.5,6.6c0,0,28.8,2.4,28.8-21.2v-34.9c0,0-1.1-13.9,5.7-18.7v57.4c0,0-0.5,13.7-7.6,18.9c0,0-4.7,8.5,5.7,6.1
		c0,0,19.8-2.8,20.8-26l0.4-58.1h4.8l0.5,58.1c0.9,23.1,20.8,26,20.8,26c10.4,2.4,5.7-6.1,5.7-6.1c-7.1-5.2-7.6-18.9-7.6-18.9v-56.9
		c6.8,5.3,5.7,18.2,5.7,18.2V337c0,23.6,28.8,21.2,28.8,21.2c6.6-2.4,0.5-6.6,0.5-6.6c-10.4-3.8-11.3-15.1-11.3-15.1v-45.8
		c0-17.9-7.5-27.3-14.9-32.3c42.9-4.3,63.4-18.1,72.9-39.6c18.8,0.5,52.6,2.8,84.9,11.9l0.4-1.4c-32.1-9.1-65.7-11.4-84.7-12
		c0.9-2.2,1.7-4.4,2.4-6.8C391.4,209.8,423.5,209.8,454.7,216L454.7,216z"/>
	<path class="st3" d="M334.7,168.8c9.2,8.4,14.6,18.5,14.6,29.3c0,50.8-37.9,52.2-84.6,52.2s-84.6-7-84.6-52.2
		c0-10.8,5.3-20.8,14.4-29.2c15.2-13.9,40.9-6.5,70.1-6.5C293.9,162.5,319.5,155,334.7,168.8L334.7,168.8z"/>
	<path class="st4" d="M236.6,200.7c0,14-7.9,25.3-17.6,25.3c-9.7,0-17.6-11.3-17.6-25.3s7.9-25.3,17.6-25.3
		C228.8,175.4,236.6,186.8,236.6,200.7z M331.1,200.7c0,14-7.9,25.3-17.6,25.3s-17.6-11.3-17.6-25.3s7.9-25.3,17.6-25.3
		S331.1,186.8,331.1,200.7z"/>
	<path class="st5" d="M231,201.1c0,9.3-5.3,16.9-11.7,16.9s-11.7-7.6-11.7-16.9c0-9.3,5.3-16.9,11.7-16.9
		C225.7,184.2,231,191.7,231,201.1L231,201.1z M325.4,201.1c0,9.3-5.3,16.9-11.7,16.9c-6.5,0-11.7-7.6-11.7-16.9
		c0-9.3,5.3-16.9,11.7-16.9C320.2,184.2,325.4,191.7,325.4,201.1L325.4,201.1z"/>
	<path class="st5" d="M265,218.8c2.4,0,4.4,2,4.4,4.4s-2,4.4-4.4,4.4s-4.4-2-4.4-4.4S262.6,218.8,265,218.8z"/>
	<path class="st5" d="M254.8,234.4c-0.3-0.7,0.1-1.5,0.9-1.8c0.7-0.3,1.5,0.1,1.8,0.9c1.1,3.2,4.2,5.3,7.6,5.3s6.4-2.1,7.6-5.3
		c0.3-0.7,1.1-1.1,1.8-0.9c0.7,0.3,1.1,1.1,0.9,1.8c-1.5,4.3-5.6,7.2-10.2,7.2S256.3,238.7,254.8,234.4L254.8,234.4z"/>
	<path class="st6" d="M157.2,254.5c0,1.2-1.4,2.1-3.1,2.1c-1.7,0-3.1-0.9-3.1-2.1c0-1.2,1.4-2.1,3.1-2.1S157.2,253.3,157.2,254.5
		L157.2,254.5z M165.7,259.2c0,1.2-1.4,2.1-3.1,2.1c-1.7,0-3.1-0.9-3.1-2.1s1.4-2.1,3.1-2.1S165.7,258.1,165.7,259.2L165.7,259.2z
		 M170.9,265.4c0,1.2-1.4,2.1-3.1,2.1c-1.7,0-3.1-0.9-3.1-2.1s1.4-2.1,3.1-2.1C169.5,263.2,170.9,264.2,170.9,265.4L170.9,265.4z
		 M175.6,272.4c0,1.2-1.4,2.1-3.1,2.1c-1.7,0-3.1-0.9-3.1-2.1s1.4-2.1,3.1-2.1C174.2,270.3,175.6,271.3,175.6,272.4L175.6,272.4z
		 M180.8,279.1c0,1.2-1.4,2.1-3.1,2.1c-1.7,0-3.1-0.9-3.1-2.1s1.4-2.1,3.1-2.1C179.4,276.9,180.8,277.9,180.8,279.1L180.8,279.1z
		 M187.9,284.7c0,1.2-1.4,2.1-3.1,2.1c-1.7,0-3.1-0.9-3.1-2.1s1.4-2.1,3.1-2.1S187.9,283.5,187.9,284.7L187.9,284.7z M197.8,288.5
		c0,1.2-1.4,2.1-3.1,2.1s-3.1-0.9-3.1-2.1s1.4-2.1,3.1-2.1S197.8,287.3,197.8,288.5L197.8,288.5z M207.7,288.5
		c0,1.2-1.4,2.1-3.1,2.1s-3.1-0.9-3.1-2.1s1.4-2.1,3.1-2.1S207.7,287.3,207.7,288.5L207.7,288.5z M217.7,286.9
		c0,1.2-1.4,2.1-3.1,2.1s-3.1-0.9-3.1-2.1s1.4-2.1,3.1-2.1S217.7,285.7,217.7,286.9L217.7,286.9z"/>
	<path class="st7" d="M113.9,173.3c4.9,17,5.6,29.4,7.7,40c2.1,10.7,5.8,19.7,16.7,29.8l0,0l15.5,11.7l0.6-0.8l-15.5-11.7l-0.3,0.4
		l0.3-0.4c-10.7-9.9-14.2-18.6-16.4-29.2c-2.1-10.6-2.8-23-7.7-40.1L113.9,173.3L113.9,173.3z"/>
	<path class="st8" d="M108.2,161.8l-0.5,11.8c0,1,0.9,1.7,1.8,1.5c0.3-0.1,0.6,0,0.8,0l4.9-0.1c0.2-0.8,0.5-1.5,0.9-2.2
		c-0.6,1.1,4.7,1.4,4.2,0.2l-4.7-11.3c-0.3-0.7,0-1.6,0.7-1.9c31.2-15.6,41.7-57.2,35.8-83.3c-6.7-29.3-36-47.6-65.2-40.9
		s-47.6,36-40.9,65.2c6,26.1,33.4,58.7,60.7,59.4C107.6,160.3,108.2,161,108.2,161.8z"/>
</g>
</svg>
