<?xml version="1.0" encoding="utf-8"?>
<!-- Generator: Adobe Illustrator 23.0.1, SVG Export Plug-In . SVG Version: 6.00 Build 0)  -->
<svg version="1.1" id="Layer_1" xmlns="http://www.w3.org/2000/svg" xmlns:xlink="http://www.w3.org/1999/xlink" x="0px" y="0px"
	 viewBox="0 0 512 512" style="enable-background:new 0 0 512 512;" xml:space="preserve">
<title>ionicons-v5-f</title>
<g>
	<path d="M456.7,421.4l-94.1-94.1c22.7-30.2,34.9-66.9,34.8-104.6c0-96.3-78.4-174.7-174.7-174.7C126.4,48,48,126.4,48,222.7
		c0,96.3,78.4,174.7,174.7,174.7c37.7,0,74.4-12.2,104.6-34.8l94.1,94.1c10.3,9.2,26.1,8.3,35.3-2
		C465.2,445.2,465.2,430.9,456.7,421.4z M97.9,222.7c0-68.9,55.9-124.8,124.8-124.8s124.8,55.9,124.8,124.8s-55.9,124.8-124.8,124.8
		C153.8,347.4,98,291.6,97.9,222.7z"/>
</g>
</svg>
