<?xml version="1.0" encoding="utf-8"?>
<!-- Generator: Adobe Illustrator 23.0.1, SVG Export Plug-In . SVG Version: 6.00 Build 0)  -->
<svg version="1.1" id="Layer_1" xmlns="http://www.w3.org/2000/svg" xmlns:xlink="http://www.w3.org/1999/xlink" x="0px" y="0px"
	 viewBox="0 0 512 512" style="enable-background:new 0 0 512 512;" xml:space="preserve">
<title>ionicons-v5-f</title>
<g>
	<path d="M221.1,64V48c-23.9,0-46.7,4.8-67.4,13.6c-31.1,13.2-57.5,35.1-76.1,62.7c-18.7,27.6-29.6,61-29.6,96.8
		c0,23.9,4.8,46.7,13.6,67.4c13.2,31.1,35.1,57.5,62.7,76.1c27.6,18.7,61,29.6,96.8,29.6c23.9,0,46.7-4.8,67.4-13.6
		c31.1-13.2,57.5-35.1,76.1-62.7c18.7-27.6,29.6-61,29.6-96.8c0-23.9-4.8-46.7-13.6-67.4c-13.2-31.1-35.1-57.5-62.7-76.1
		c-27.6-18.7-61-29.6-96.8-29.6l0,0V64l0,16c19.5,0,38,3.9,54.9,11.1c25.3,10.7,46.9,28.6,62.1,51.1c7.6,11.3,13.6,23.7,17.7,36.9
		c4.1,13.2,6.3,27.3,6.3,42c0,19.5-3.9,38-11.1,54.9c-10.7,25.3-28.6,46.9-51.1,62.1c-11.3,7.6-23.7,13.6-36.9,17.7
		c-13.2,4.1-27.3,6.3-42,6.3c-19.5,0-38-3.9-54.9-11.1c-25.3-10.7-46.9-28.6-62.1-51.1c-7.6-11.3-13.6-23.7-17.7-36.9
		c-4.1-13.2-6.3-27.3-6.3-42c0-19.5,3.9-38,11.1-54.9c10.7-25.3,28.6-46.9,51.1-62.1c11.3-7.6,23.7-13.6,36.9-17.7
		c13.2-4.1,27.3-6.3,42-6.3l0,0L221.1,64z"/>
	<path d="M327,349.6l109.7,109.7c6.2,6.2,16.4,6.2,22.6,0c6.2-6.2,6.2-16.4,0-22.6L349.6,327c-6.2-6.2-16.4-6.2-22.6,0
		C320.7,333.2,320.7,343.4,327,349.6"/>
</g>
</svg>
