<?xml version="1.0" encoding="utf-8"?>
<!-- Generator: Adobe Illustrator 23.0.1, SVG Export Plug-In . SVG Version: 6.00 Build 0)  -->
<svg version="1.1" id="Layer_1" xmlns="http://www.w3.org/2000/svg" xmlns:xlink="http://www.w3.org/1999/xlink" x="0px" y="0px"
	 viewBox="0 0 512 512" style="enable-background:new 0 0 512 512;" xml:space="preserve">
<title>ionicons-v5-q</title>
<g>
	<path d="M262.3,192.3l1.6-15.9c-2.7-0.3-5.3-0.4-7.9-0.4c-10.2,0-20,1.9-29,5.5c-13.6,5.3-25.4,14.2-34.3,25.7
		c-8.9,11.5-14.7,25.6-16.2,41c-0.3,2.7-0.4,5.3-0.4,7.9c0,10.2,1.9,20,5.5,29c5.3,13.6,14.2,25.4,25.7,34.3
		c11.5,8.9,25.6,14.7,41,16.2c2.7,0.3,5.3,0.4,7.9,0.4c10.2,0,20-1.9,29-5.5c13.6-5.3,25.4-14.2,34.3-25.7
		c8.9-11.5,14.7-25.6,16.2-41c0.3-2.6,0.4-5.2,0.4-7.9c0-2.6-0.1-5.2-0.4-7.9l0,0c-0.9-9.5-3.5-18.5-7.5-26.7
		c-5.9-12.3-14.9-22.8-25.9-30.7c-11-7.8-24.2-13-38.4-14.4l0,0L262.3,192.3l-1.6,15.9c5.7,0.6,11.1,2.1,16,4.5
		c7.4,3.5,13.7,8.9,18.4,15.6c4.7,6.6,7.8,14.5,8.6,23l0,0c0.2,1.6,0.2,3.1,0.2,4.7c0,1.6-0.1,3.1-0.2,4.7c-0.6,6.2-2.4,12-5.1,17.2
		c-4,7.8-10.1,14.3-17.5,18.9c-7.4,4.6-16,7.2-25.1,7.2c-1.6,0-3.2-0.1-4.8-0.2c-6.2-0.6-12-2.4-17.2-5.1
		c-7.8-4-14.3-10.1-18.9-17.5c-4.6-7.4-7.2-16-7.2-25.1c0-1.6,0.1-3.2,0.2-4.8c0.6-6.2,2.4-12,5.1-17.2c4-7.8,10.1-14.3,17.5-18.9
		c7.4-4.6,16-7.2,25.1-7.2c1.6,0,3.2,0.1,4.8,0.2l0,0L262.3,192.3z M416.4,256l-16-0.1c0,6.2-0.5,12.5-1.4,18.6
		c-0.8,5.7,1.5,11.3,6,14.8l45.2,35.5l9.9-12.6l-10.2,12.3l3.3-4l-4.7,2.2c0.3,0.7,0.8,1.3,1.4,1.8l3.3-4l-4.7,2.2l4.7-2.2H448
		c0,0.7,0.2,1.5,0.5,2.2l4.7-2.2H448h5.2l-4.5-2.6c-0.5,0.8-0.7,1.7-0.7,2.6h5.2l-4.5-2.6l0,0l-42.8,74l13.9,8l-13.8-8.2l4.5,2.7
		l-2.5-4.5c-0.8,0.4-1.5,1.1-1.9,1.9l4.5,2.7l-2.5-4.5l2.5,4.5v-5.2c-0.9,0-1.8,0.2-2.5,0.7l2.5,4.5v-5.2v5.2l1.8-4.9
		c-0.6-0.2-1.2-0.3-1.8-0.3v5.2l1.8-4.9l-5.7,15l6-14.8l-44.9-18.1l-0.1,0c-3.8-1.5-7.9-2.3-11.9-2.3c-6.5,0-12.9,2-18.4,5.8
		l0.1-0.1c-6.2,4.3-12.7,8-19.4,11.3l0,0c-9.6,4.7-16.2,13.8-17.7,24.3l0,0l-6.7,47.9l15.8,2.2l-15.8-2.8l4.9,0.8l-4.3-2.5
		c-0.3,0.5-0.5,1.1-0.6,1.6l4.9,0.8l-4.3-2.5l4.2,2.4l-2.5-4.2c-0.7,0.4-1.3,1-1.7,1.8l4.2,2.4l-2.5-4.2l2.5,4.2l-0.1-4.9
		c-0.9,0-1.7,0.3-2.4,0.7l2.5,4.2l-0.1-4.9l0.3,16v-16h-85.5v16l0.3-16l-0.1,4.9l1.7-4.6c-0.5-0.2-1.1-0.3-1.6-0.3l-0.1,4.9l1.7-4.6
		l-1.7,4.6l3.7-3.2c-0.5-0.6-1.2-1.1-2-1.4l-1.7,4.6l3.7-3.2l-3.7,3.2l4.8-1c-0.2-0.8-0.6-1.6-1.1-2.2l-3.7,3.2l4.8-1l-15.7,3.2
		l15.8-2.2l-6.7-47.8l0-0.1c-1.5-10.6-8.3-19.8-18-24.4l0.1,0c-6.7-3.2-13.1-7-19.2-11.3l0,0c-5.4-3.8-11.8-5.7-18.3-5.7
		c-4,0-8.1,0.8-11.9,2.3l0,0L99.4,390l6,14.8l-5.7-15l1.9,4.9v-5.2c-0.6,0-1.3,0.1-1.9,0.3l1.9,4.9v-5.2v5.2l2.5-4.5
		c-0.8-0.4-1.6-0.7-2.5-0.7v5.2l2.5-4.5l-2.5,4.5l4.5-2.7c-0.5-0.8-1.2-1.5-1.9-1.9l-2.5,4.5l4.5-2.7l-13.8,8.2l13.9-8l-42.8-74l0,0
		l-4.5,2.6H64c0-0.9-0.2-1.8-0.7-2.6l-4.5,2.6H64h-5.2l4.7,2.2c0.3-0.7,0.5-1.4,0.5-2.2h-5.2l4.7,2.2l-4.7-2.2l3.3,4
		c0.6-0.5,1.1-1.1,1.4-1.8l-4.7-2.2l3.3,4l-10.2-12.3l9.9,12.6l38.2-30l0.1-0.1c3.8-3.1,6.9-6.9,9-11.2c2.1-4.3,3.2-9,3.2-13.9
		c0-1,0-2-0.1-3l0,0.1c-0.3-3.8-0.5-7.5-0.5-11.1c0-3.6,0.2-7.2,0.5-10.9l0-0.1c0.1-0.9,0.1-1.8,0.1-2.7c0-9.8-4.5-19.1-12.3-25.2
		l0,0l-38.2-30l-9.9,12.6l10.3-12.2l-3.4,4l4.7-2.2c-0.3-0.7-0.8-1.3-1.4-1.8l-3.4,4l4.7-2.2l-4.7,2.1H64c0-0.7-0.2-1.5-0.5-2.1
		l-4.7,2.1H64h-5.2l4.5,2.6c0.5-0.8,0.7-1.7,0.7-2.6h-5.2l4.5,2.6l0,0l42.8-74l-13.9-8l13.8,8.2l-4.5-2.7l2.5,4.5
		c0.8-0.4,1.5-1.1,1.9-1.9l-4.5-2.7l2.5,4.5l-2.5-4.5v5.2c0.9,0,1.8-0.2,2.5-0.7l-2.5-4.5v5.2v-5.2l-1.8,4.9
		c0.6,0.2,1.2,0.3,1.8,0.3v-5.2l-1.8,4.9l5.7-15l-6,14.8l44.9,18.1l0.1,0c3.8,1.5,7.9,2.3,11.9,2.3c6.5,0,12.9-2,18.4-5.8l-0.1,0
		c6.2-4.3,12.7-8,19.4-11.3l0,0c9.6-4.7,16.2-13.8,17.7-24.3l0,0l6.7-47.9l-15.8-2.2l15.8,2.8l-4.9-0.8l4.3,2.5
		c0.3-0.5,0.5-1.1,0.6-1.6l-4.9-0.8l4.3,2.5l-4.2-2.4l2.5,4.2c0.7-0.4,1.3-1,1.7-1.8l-4.2-2.4l2.5,4.2l-2.5-4.2l0.1,4.9
		c0.9,0,1.7-0.3,2.4-0.7l-2.5-4.2l0.1,4.9l-0.3-16v16h85.5V42l-0.3,16l0.1-4.9l-1.7,4.6c0.5,0.2,1.1,0.3,1.6,0.3l0.1-4.9l-1.7,4.6
		l1.7-4.6l-3.7,3.2c0.5,0.6,1.2,1.1,2,1.4l1.7-4.6l-3.7,3.2l3.7-3.2l-4.8,1c0.2,0.8,0.6,1.6,1.1,2.2l3.7-3.2l-4.8,1l15.7-3.2
		l-15.8,2.2l6.7,47.8l0,0.1c1.5,10.6,8.3,19.8,18,24.4l-0.1,0c6.7,3.2,13.1,7,19.2,11.3l0,0c5.4,3.8,11.8,5.7,18.3,5.7
		c4,0,8.1-0.8,11.9-2.3l0,0l44.9-18.1l-6-14.8l5.7,15l-1.9-4.9l0,5.2c0.6,0,1.3-0.1,1.9-0.3l-1.9-4.9l0,5.2v-5.2l-2.5,4.5
		c0.8,0.4,1.6,0.7,2.5,0.7v-5.2l-2.5,4.5l2.5-4.5l-4.5,2.7c0.5,0.8,1.2,1.5,1.9,1.9l2.5-4.5l-4.5,2.7l13.8-8.2l-13.9,8l42.8,74l0,0
		l4.5-2.6l-5.2,0c0,0.9,0.2,1.8,0.7,2.6l4.5-2.6l-5.2,0h5.2l-4.7-2.2c-0.3,0.7-0.5,1.4-0.5,2.2h5.2l-4.7-2.2l4.7,2.2l-3.3-4
		c-0.6,0.5-1.1,1.1-1.4,1.8l4.7,2.2l-3.3-4l10.2,12.3l-9.9-12.6l-38.2,30l0,0c-3.9,3.1-6.9,6.9-9,11.2c-2.1,4.3-3.2,9.1-3.2,14
		c0,1,0,2,0.1,2.9l15.9-1.5l-15.9,1.3c0.3,3.9,0.5,7.6,0.5,11.2l0-0.1L416.4,256h16c0-4.7-0.2-9.3-0.6-13.7l0-0.2l0,0l0,0l0,0l0,0
		l38.2-30l0.3-0.3c3.1-2.6,5.6-5.9,7.2-9.4c1.6-3.5,2.5-7.4,2.5-11.3c0-4.6-1.2-9.3-3.6-13.5l0,0l-42.8-74l-0.1-0.2
		c-2.5-4.1-5.9-7.5-9.9-9.7c-4-2.2-8.5-3.4-13.1-3.4c-3.2,0-6.4,0.6-9.5,1.8l-0.3,0.1l-44.9,18.1l0,0l0,0v0l0,0l0,0v0l0,0l0,0
		c-7.5-5.2-15.4-9.9-23.7-13.9l-0.1,0l0-0.1l0,0.1l-6.7-47.8l-0.2-1c-0.6-3.1-1.8-6-3.4-8.6c-2.4-3.9-5.7-7.1-9.6-9.4
		c-3.9-2.3-8.4-3.6-13.2-3.7l-0.3,0h-85.5l-0.3,0c-3.2,0.1-6.3,0.7-9.2,1.8c-4.3,1.7-8.1,4.4-11,8c-2.9,3.5-5,7.9-5.8,12.6l-0.1,0.5
		L180,96.8l0,0l0.1,0l0-0.1l0,0l0.1,0l0-0.1l0,0c-8.2,4-16.1,8.6-23.6,13.8l-0.1,0l-0.1,0l0,0l0.1,0l-44.9-18.1l-0.3-0.1
		c-3.1-1.2-6.3-1.8-9.5-1.8c-4.6,0-9.1,1.2-13.1,3.4c-4,2.2-7.5,5.6-9.9,9.7l-0.1,0.2l-42.8,74l0,0c-2.4,4.2-3.6,8.9-3.6,13.5
		c0,3.8,0.8,7.6,2.4,11.1c1.6,3.5,4,6.7,7.1,9.3l0.4,0.4l38.2,30l0,0l0,0l0,0l0,0l0,0l0,0l0,0l0,0l0-0.1c-0.4,4.5-0.6,9.1-0.6,13.8
		c0,4.7,0.2,9.4,0.6,13.9l0,0.1l0,0l0,0l0,0l0.1-0.1L42,300l-0.3,0.3c-3.1,2.6-5.6,5.9-7.2,9.4c-1.6,3.5-2.5,7.4-2.5,11.3
		c0,4.6,1.2,9.3,3.6,13.5l0,0l42.8,74l0.1,0.2c2.5,4.1,5.9,7.5,9.9,9.7c4,2.2,8.5,3.4,13.1,3.4c3.2,0,6.4-0.6,9.5-1.8l0.3-0.1
		l44.9-18.1l0,0l0,0l0,0l0,0l0,0l0,0l0,0l0,0c7.5,5.2,15.4,9.9,23.7,13.9l0.1,0l0,0.1l0-0.1l6.7,47.8l0.2,1c0.6,3.1,1.8,6,3.4,8.6
		c2.4,3.9,5.7,7.1,9.6,9.4c3.9,2.3,8.4,3.6,13.2,3.7l0.3,0h85.5l0.3,0c3.2-0.1,6.3-0.7,9.2-1.8c4.3-1.7,8.1-4.4,11-8
		c2.9-3.5,5-7.9,5.8-12.6l0.1-0.5l6.7-47.9l0,0l-0.1,0l0,0.1l0,0l-0.1,0l0,0.1l0,0c8.2-4,16.1-8.6,23.6-13.8l0.1-0.1l0.1,0l0,0
		l-0.1,0l44.9,18.1l0.3,0.1c3.1,1.2,6.3,1.8,9.5,1.8c4.6,0,9.1-1.2,13.1-3.4c4-2.2,7.5-5.6,9.9-9.7l0.1-0.2l42.8-74l0,0
		c2.4-4.2,3.6-8.9,3.6-13.5c0-3.9-0.8-7.7-2.5-11.3c-1.6-3.5-4.1-6.8-7.2-9.4l-0.3-0.3l-45.2-35.5l-9.9,12.6l15.8,2.2
		c1.1-7.6,1.6-15.3,1.7-22.9l0-0.1H416.4z"/>
</g>
</svg>
