<?xml version="1.0" encoding="utf-8"?>
<!-- Generator: Adobe Illustrator 23.0.1, SVG Export Plug-In . SVG Version: 6.00 Build 0)  -->
<svg version="1.1" id="Layer_1" xmlns="http://www.w3.org/2000/svg" xmlns:xlink="http://www.w3.org/1999/xlink" x="0px" y="0px"
	 viewBox="0 0 512 512" style="enable-background:new 0 0 512 512;" xml:space="preserve">
<title>ionicons-v5-e</title>
<g>
	<path d="M394,480c-3.4,0-6.7-1-9.4-3L256,383.8L127.4,477c-7.2,5.2-17.2,3.6-22.3-3.6c-3-4.2-3.9-9.6-2.2-14.5L153,310.3L23,221.2
		c-7.3-5-9.2-15-4.2-22.2c3-4.3,7.9-6.9,13.2-7h160.4l48.4-149c2.7-8.4,11.7-13,20.2-10.3c4.9,1.6,8.7,5.4,10.3,10.3l48.4,149H480
		c8.8,0,16,7.2,16,16c0,5.3-2.6,10.2-7,13.2l-130,89.1l50.1,148.5c2.8,8.4-1.7,17.5-10,20.3C397.5,479.7,395.7,480,394,480z"/>
</g>
</svg>
