<svg xmlns="http://www.w3.org/2000/svg" viewBox="0 0 200 200"><defs><style>.cls-1{fill:#24292e;}</style></defs><title>logo</title><g id="Layer_2" data-name="Layer 2"><g id="Layer_1-2" data-name="Layer 1"><ellipse class="cls-1" cx="65.22" cy="155.25" rx="13.04" ry="17.51"/><path class="cls-1" d="M183.75,91.29c1.19-5.22,1.69-23.74-6.88-43.06,0,0-16.32,1.6-41.71,15.69a63.92,63.92,0,0,0-2.4-8.51c-3.94-11-8.8-16.09-11.6-18.29a1.27,1.27,0,0,0-2.08.92c.82,11.84-4.16,14.84-7,8.07C111,43.41,110.3,38.74,110.3,33a41.61,41.61,0,0,0-9.85-27.17A32.73,32.73,0,0,0,94.27.24a1.26,1.26,0,0,0-2,1c.52,6.43,0,24.84-18,46.85a51.59,51.59,0,0,0-9,16c-25.58-14.26-42-15.88-42-15.88C14.56,67.55,15,85.62,16.25,91.29,6.17,101.1,0,112.86,0,129c0,69.91,64.81,71,81.17,71h37.66c16.36,0,81.17-1.13,81.17-71C200,112.86,193.83,101.1,183.75,91.29ZM100.61,192.22H100c-41,0-73.23-5.22-73.23-40.88,0-8.54,3.38-16.46,11.38-23.05,13.34-11,35.92-5.16,61.54-5.16h.62c25.62,0,48.21-5.8,61.56,5.16,8,6.59,11.36,14.51,11.36,23.05C173.23,187,141.61,192.22,100.61,192.22Z"/><path class="cls-1" d="M134.78,137.74c-7.81,0-13,5.89-13,15.56s3.87,19.64,13,19.46c9.65-.2,13.13-8.65,13.05-19.46C147.76,143.63,142.58,137.74,134.78,137.74Z"/></g></g></svg>